`                            __     __   __            __  __ 
                  .-----..--|  |.--|  | |  |--..---.-.|  ||  |
                  |  _  ||  _  ||  _  | |  _  ||  _  ||  ||  |
                  |_____||_____||_____| |_____||___._||__||__|
                                  -links.com   `                  

Pan's Labyrinth (Spanish: El Laberinto del Fauno) is a 2006 Spanish language fantasy film.written and directed by Mexican film-maker Guillermo del Toro. It was produced and distributed by the Mexican film company Esperanto Films.

Pan's Labyrinth takes place in Spain in May and June, 1944, after the Spanish Civil War, during the Franquist repression. Also present is the main character Ofelia's fantasy world which centers around an overgrown abandoned labyrinth. Ofelia's stepfather, the Falangist Captain Vidal, viciously hunts the Spanish Maquis, guerrillas who fight against the Franco regime in the region, while Ofelia's pregnant mother grows increasingly ill. Ofelia meets several strange and magical creatures who become central to her story, leading her through the trials of the old labyrinth garden. The film employs make-up, animatronics and CGI effects to create its creatures

Screen Shots
 
http://i724.photobucket.com/albums/ww246/oddball-links/Pans/5.jpg
 
http://i724.photobucket.com/albums/ww246/oddball-links/Pans/4.jpg
 
http://i724.photobucket.com/albums/ww246/oddball-links/Pans/3.jpg
 
http://i724.photobucket.com/albums/ww246/oddball-links/Pans/2.jpg
 
http://i724.photobucket.com/albums/ww246/oddball-links/Pans/1.jpg

                                    +-+-+-+-+
                                    |c|a|s|t|
                                    +-+-+-+-+
                                         
                  Actor                              Role


                 Ivana Baquero ...................  Ofelia 
                
                 Sergi López .....................  Captain Vidal 

                 Maribel Verdú ...................  Mercedes 

                 Doug Jones ......................  Fauno / Pale Man 
 
                 Ariadna Gil .....................  Carmen Vidal 
 
                 Álex Angulo .....................  Doctor 
 
                 Manolo Solo .....................  Garcés 
 
                 César Vea .......................  Serrano 
 
                 Roger Casamajor .................  Pedro 

General
Complete name                    : Pan's Labyinth
Format                           : AVI
Format/Info                      : Audio Video Interleave
File size                        : 1.15 GiB
Duration                         : 1h 53mn
Overall bit rate                 : 1 444 Kbps

Video
Format                           : MPEG-4 Visual
Format profile                   : Streaming Video@L1
Format settings, BVOP            : Yes
Format settings, QPel            : No
Format settings, GMC             : No warppoints
Format settings, Matrix          : Default
Muxing mode                      : Packed bitstream
Codec ID                         : XVID
Codec ID/Hint                    : XviD
Duration                         : 1h 53mn
Bit rate                         : 1 240 Kbps
Width                            : 1 024 pixels
Height                           : 582 pixels
Display aspect ratio             : 16/9
Frame rate                       : 29.970 fps
Resolution                       : 24 bits
Colorimetry                      : 4:2:0
Scan type                        : Progressive
Bits/(Pixel*Frame)               : 0.069
Stream size                      : 1 011 MiB (86%)
Writing library                  : XviD 1.1.0 (UTC 2005-11-22)

Audio
Format                           : MPEG Audio
Format version                   : Version 1
Format profile                   : Layer 3
Codec ID                         : 55
Codec ID/Hint                    : MP3
Duration                         : 1h 53mn
Bit rate mode                    : Constant
Bit rate                         : 192 Kbps
Channel(s)                       : 2 channels
Sampling rate                    : 44.1 KHz
Resolution                       : 16 bits
Video delay                      : 26ms
Stream size                      : 157 MiB (13%)
Alignment                        : Split accross interleaves
Interleave, duration             : 33 ms (1.00 video frame)
Title                            : Audio Stream

For more oddball torrents  http://thepiratebay.org/user/oddball-links `                                                                                                            Please seed after downloading `                                                                                            :::===  :::===== :::===== :::====       :::= === :::====  :::====
        :::     :::      :::      :::  ===      :::===== :::  === :::====
         =====  ======   ======   ===  ===      ======== ===  ===   ===  
            === ===      ===      ===  ===      === ==== ===  ===   ===  
        ======  ======== ======== =======       ===  ===  ======    ===  
                                                                         
                  :::=====  :::====  :::===== :::===== :::==== 
                  :::       :::  === :::      :::      :::  ===
                  === ===== =======  ======   ======   ===  ===
                  ===   === === ===  ===      ===      ===  ===
                   =======  ===  === ======== ======== =======